<svg width="27" height="27" viewBox="0 0 27 27" fill="none" xmlns="http://www.w3.org/2000/svg">
<path d="M12.746 4.03142C11.1754 4.19454 9.74931 4.86099 8.59818 5.97018C6.6501 7.85302 5.97433 10.612 6.82719 13.1753C7.04158 13.8184 7.47966 14.6527 7.85716 15.128C7.93173 15.2212 7.99231 15.3191 7.99231 15.3471C7.99231 15.3704 7.84784 15.4776 7.6754 15.5801C7.23266 15.8457 6.62679 16.2978 6.09084 16.7685C3.91906 18.67 2.5349 21.6667 2.52091 24.4956C2.51625 25.2086 2.51625 25.2226 2.64209 25.4137C3.06619 26.0522 4.01227 26.0009 4.3618 25.3158C4.43171 25.1807 4.46433 24.9803 4.49696 24.4303C4.58084 23.0788 4.86047 21.9929 5.41507 20.879C6.23997 19.2386 7.6987 17.7705 9.32521 16.9503L9.6095 16.8058L10.2806 17.146C12.4804 18.2505 14.8665 18.1713 17.0103 16.913L17.2107 16.7965L17.5789 16.9782C19.1402 17.7705 20.501 19.122 21.3399 20.7253C21.9644 21.9137 22.258 22.9996 22.3466 24.4303C22.3792 24.9803 22.4118 25.1807 22.4817 25.3158C22.8266 25.9916 23.7494 26.0522 24.1875 25.4323C24.318 25.2459 24.3273 25.1946 24.3413 24.7752C24.3739 23.8664 24.1455 22.4776 23.7867 21.3917C23.5676 20.7299 22.9804 19.5135 22.5936 18.9216C22.1741 18.2832 21.6242 17.626 21.0137 17.0342C20.4078 16.4469 19.9791 16.1114 19.2753 15.664L18.8139 15.3704L19.0936 14.9789C19.6575 14.1913 20.1002 13.1287 20.282 12.1174C20.3892 11.5395 20.3845 10.3557 20.2773 9.76381C20.1748 9.20455 19.8952 8.35169 19.6528 7.867C18.9677 6.5108 17.728 5.29441 16.3765 4.66525C15.258 4.14328 13.9251 3.91025 12.746 4.03142ZM14.2187 6.05873C15.2766 6.24049 16.1714 6.70188 16.9218 7.45222C17.5649 8.0907 17.9937 8.85036 18.2593 9.81042C18.3386 10.0994 18.3526 10.2951 18.3572 10.9522C18.3572 11.656 18.3432 11.7911 18.236 12.1919C17.9937 13.0821 17.537 13.8697 16.8845 14.4989C15.9011 15.4496 14.7686 15.9156 13.4218 15.9156C12.0423 15.9156 10.8352 15.403 9.87048 14.4103C9.24132 13.7578 8.84518 13.0681 8.6075 12.1966C8.50031 11.7911 8.48632 11.6653 8.48632 10.9522C8.49098 10.2485 8.50031 10.1087 8.61216 9.70789C9.27394 7.22851 11.73 5.62997 14.2187 6.05873Z" fill="#C92071"/>
</svg>
